<?xml version="1.0" standalone="no"?>
<!DOCTYPE svg PUBLIC "-//W3C//DTD SVG 20010904//EN"
 "http://www.w3.org/TR/2001/REC-SVG-20010904/DTD/svg10.dtd">
<svg version="1.0" xmlns="http://www.w3.org/2000/svg"
 width="192.000000pt" height="37.000000pt" viewBox="0 0 192.000000 37.000000"
 preserveAspectRatio="xMidYMid meet">

<g transform="translate(0.000000,37.000000) scale(0.100000,-0.100000)"
fill="#000000" stroke="none">
<path d="M435 280 c-3 -5 -1 -10 5 -10 8 0 10 -28 8 -90 l-3 -90 29 0 c24 0
27 2 16 15 -13 16 -7 45 9 45 10 0 27 -39 23 -52 -1 -5 12 -8 28 -8 l30 0 -25
40 c-31 48 -31 55 -3 74 22 16 22 16 -12 16 -22 0 -30 -3 -22 -8 9 -6 6 -14
-13 -32 l-25 -23 0 66 c0 60 -2 67 -19 67 -11 0 -23 -4 -26 -10z"/>
<path d="M1081 280 c-16 -9 -6 -30 15 -30 15 0 20 25 6 34 -4 2 -14 1 -21 -4z"/>
<path d="M1295 281 c-3 -5 -1 -12 5 -16 14 -9 13 -148 -2 -163 -9 -9 -3 -12
28 -11 21 0 33 3 27 6 -9 3 -13 33 -13 99 0 86 -2 94 -19 94 -11 0 -22 -4 -26
-9z"/>
<path d="M1387 284 c-14 -15 -6 -34 14 -34 14 0 19 5 17 17 -3 18 -20 27 -31
17z"/>
<path d="M90 260 c0 -5 5 -10 10 -10 6 0 10 -34 10 -82 0 -62 -4 -86 -17 -100
-21 -23 -11 -33 17 -18 29 16 40 50 40 129 0 39 5 72 12 79 9 9 3 12 -30 12
-23 0 -42 -4 -42 -10z"/>
<path d="M671 251 c-25 -25 -35 -63 -26 -99 11 -46 33 -62 87 -62 51 0 52 1
62 58 5 31 4 32 -29 32 -19 0 -35 -4 -35 -10 0 -5 7 -10 15 -10 21 0 20 -49
-1 -57 -25 -9 -48 10 -58 49 -11 44 -2 84 23 98 23 12 51 3 51 -16 0 -8 7 -14
16 -14 10 0 14 7 12 23 -3 19 -10 22 -50 25 -37 2 -51 -1 -67 -17z"/>
<path d="M208 219 c-27 -15 -22 -24 14 -24 17 0 33 -6 35 -12 3 -8 -5 -13 -20
-13 -27 0 -57 -23 -57 -43 0 -27 18 -36 65 -36 l50 1 -3 56 c-4 74 -35 100
-84 71z m52 -89 c0 -13 -7 -20 -20 -20 -13 0 -20 7 -20 20 0 13 7 20 20 20 13
0 20 -7 20 -20z"/>
<path d="M339 211 c-26 -21 -32 -79 -10 -105 15 -18 76 -22 86 -6 4 6 -6 10
-24 10 -33 0 -46 24 -39 71 3 27 38 40 38 15 0 -9 7 -16 15 -16 20 0 19 36 -1
44 -26 10 -41 7 -65 -13z"/>
<path d="M840 217 c-24 -11 -24 -11 13 -15 46 -4 48 -24 5 -37 -28 -8 -33 -15
-33 -40 0 -30 1 -30 55 -32 l56 -1 -6 53 c-9 80 -32 99 -90 72z m50 -82 c0
-15 -6 -25 -14 -25 -24 0 -30 22 -11 37 25 17 25 17 25 -12z"/>
<path d="M961 221 c-9 -6 -10 -11 -2 -15 15 -10 14 -89 -1 -104 -9 -9 -2 -12
33 -11 24 1 36 3 27 6 -14 3 -18 15 -18 49 0 40 2 44 25 44 18 0 25 5 25 20 0
22 -19 27 -37 9 -8 -8 -13 -8 -17 0 -8 13 -16 14 -35 2z"/>
<path d="M1071 221 c-9 -6 -10 -11 -2 -15 15 -10 14 -103 -1 -109 -7 -3 5 -5
27 -5 22 0 34 2 28 5 -9 3 -13 27 -13 69 0 65 -7 75 -39 55z"/>
<path d="M1166 217 c-14 -10 -16 -24 -12 -67 3 -30 0 -60 -5 -67 -15 -18 -2
-50 24 -57 40 -10 58 -6 83 19 35 35 19 65 -36 65 -29 0 -40 4 -40 15 0 10 10
15 31 15 25 0 33 6 42 30 6 17 15 30 19 30 4 0 8 6 8 13 0 16 -92 20 -114 4z
m58 -22 c8 -21 -3 -45 -20 -45 -18 0 -28 24 -20 45 3 8 12 15 20 15 7 0 16 -7
20 -15z m11 -130 c0 -23 -43 -34 -55 -14 -14 21 1 40 29 37 18 -2 26 -9 26
-23z"/>
<path d="M1380 219 c-11 -8 -12 -12 -2 -16 7 -3 12 -24 12 -53 0 -29 -5 -50
-12 -53 -7 -3 5 -5 27 -5 22 0 34 2 28 5 -9 3 -13 27 -13 69 0 66 -8 76 -40
53z"/>
<path d="M1478 219 c-27 -15 -22 -24 14 -24 17 0 33 -6 35 -12 3 -8 -5 -13
-20 -13 -27 0 -57 -23 -57 -43 0 -27 18 -36 66 -36 l50 1 -6 60 c-7 73 -34 95
-82 67z m52 -89 c0 -13 -7 -20 -20 -20 -13 0 -20 7 -20 20 0 13 7 20 20 20 13
0 20 -7 20 -20z"/>
<path d="M1592 223 c-10 -4 -10 -8 -1 -19 6 -7 9 -35 7 -64 -3 -50 -3 -50 27
-50 22 0 26 3 17 12 -20 20 -15 86 8 98 26 14 33 -3 28 -65 -3 -43 -2 -45 23
-45 23 0 25 3 22 33 -12 103 -20 115 -68 97 -16 -6 -25 -6 -25 0 0 11 -16 12
-38 3z"/>
<path d="M1770 210 c-22 -22 -26 -70 -10 -101 13 -24 72 -26 94 -3 25 24 21
90 -6 108 -30 21 -54 20 -78 -4z m62 -25 c14 -31 0 -80 -22 -80 -22 0 -36 49
-22 80 6 14 16 25 22 25 6 0 16 -11 22 -25z"/>
</g>
</svg>
